<mxfile host="app.diagrams.net" modified="2020-10-04T20:33:08.011Z" agent="5.0 (Windows)" etag="vv_GL5G0PXg4loPWghwi" version="13.7.7" type="github" pages="2">
  <diagram id="XPK430pW-87LbYbgTx8C" name="Exo2">
    <mxGraphModel dx="764" dy="835" grid="1" gridSize="10" guides="1" tooltips="1" connect="1" arrows="1" fold="1" page="1" pageScale="1" pageWidth="827" pageHeight="1169" math="0" shadow="0">
      <root>
        <mxCell id="0" />
        <mxCell id="1" parent="0" />
        <mxCell id="hbgRD-IKPevmIVUSTOJ2-6" style="edgeStyle=orthogonalEdgeStyle;rounded=0;orthogonalLoop=1;jettySize=auto;html=1;" edge="1" parent="1" source="hbgRD-IKPevmIVUSTOJ2-1" target="hbgRD-IKPevmIVUSTOJ2-5">
          <mxGeometry relative="1" as="geometry" />
        </mxCell>
        <mxCell id="hbgRD-IKPevmIVUSTOJ2-1" value="Client" style="shape=umlActor;verticalLabelPosition=bottom;verticalAlign=top;html=1;" vertex="1" parent="1">
          <mxGeometry x="140" y="270" width="30" height="60" as="geometry" />
        </mxCell>
        <mxCell id="hbgRD-IKPevmIVUSTOJ2-8" style="edgeStyle=orthogonalEdgeStyle;rounded=0;orthogonalLoop=1;jettySize=auto;html=1;" edge="1" parent="1" source="hbgRD-IKPevmIVUSTOJ2-2" target="hbgRD-IKPevmIVUSTOJ2-7">
          <mxGeometry relative="1" as="geometry" />
        </mxCell>
        <mxCell id="hbgRD-IKPevmIVUSTOJ2-2" value="Mecanicien" style="shape=umlActor;verticalLabelPosition=bottom;verticalAlign=top;html=1;" vertex="1" parent="1">
          <mxGeometry x="140" y="400" width="30" height="60" as="geometry" />
        </mxCell>
        <mxCell id="hbgRD-IKPevmIVUSTOJ2-10" style="edgeStyle=orthogonalEdgeStyle;rounded=0;orthogonalLoop=1;jettySize=auto;html=1;" edge="1" parent="1" source="hbgRD-IKPevmIVUSTOJ2-3" target="hbgRD-IKPevmIVUSTOJ2-9">
          <mxGeometry relative="1" as="geometry" />
        </mxCell>
        <mxCell id="hbgRD-IKPevmIVUSTOJ2-3" value="Chef d&#39;atelier" style="shape=umlActor;verticalLabelPosition=bottom;verticalAlign=top;html=1;" vertex="1" parent="1">
          <mxGeometry x="140" y="525" width="30" height="60" as="geometry" />
        </mxCell>
        <mxCell id="hbgRD-IKPevmIVUSTOJ2-5" value="Se servir de l&#39;essence" style="ellipse;whiteSpace=wrap;html=1;" vertex="1" parent="1">
          <mxGeometry x="340" y="265" width="140" height="70" as="geometry" />
        </mxCell>
        <mxCell id="hbgRD-IKPevmIVUSTOJ2-7" value="Entretenir véhicule" style="ellipse;whiteSpace=wrap;html=1;" vertex="1" parent="1">
          <mxGeometry x="340" y="395" width="140" height="70" as="geometry" />
        </mxCell>
        <mxCell id="hbgRD-IKPevmIVUSTOJ2-9" value="Gérer station-service" style="ellipse;whiteSpace=wrap;html=1;" vertex="1" parent="1">
          <mxGeometry x="340" y="520" width="140" height="70" as="geometry" />
        </mxCell>
        <mxCell id="hbgRD-IKPevmIVUSTOJ2-11" value="" style="endArrow=block;endSize=16;endFill=0;html=1;" edge="1" parent="1">
          <mxGeometry x="-1" y="-565" width="160" relative="1" as="geometry">
            <mxPoint x="155" y="520" as="sourcePoint" />
            <mxPoint x="155" y="480" as="targetPoint" />
            <mxPoint y="10" as="offset" />
          </mxGeometry>
        </mxCell>
      </root>
    </mxGraphModel>
  </diagram>
  <diagram id="atYGg93hZIWTeIGPqAUB" name="Exo3">
    <mxGraphModel dx="1790" dy="835" grid="1" gridSize="10" guides="1" tooltips="1" connect="1" arrows="1" fold="1" page="1" pageScale="1" pageWidth="827" pageHeight="1169" math="0" shadow="0">
      <root>
        <mxCell id="aZ4LYYL7Ky7_YSfR0cW_-0" />
        <mxCell id="aZ4LYYL7Ky7_YSfR0cW_-1" parent="aZ4LYYL7Ky7_YSfR0cW_-0" />
        <mxCell id="1N5yhNWeasO5Eyk3waic-0" style="edgeStyle=orthogonalEdgeStyle;rounded=0;orthogonalLoop=1;jettySize=auto;html=1;" edge="1" parent="aZ4LYYL7Ky7_YSfR0cW_-1" source="1N5yhNWeasO5Eyk3waic-1" target="1N5yhNWeasO5Eyk3waic-2">
          <mxGeometry relative="1" as="geometry" />
        </mxCell>
        <mxCell id="1N5yhNWeasO5Eyk3waic-1" value="Agent de voyages" style="shape=umlActor;verticalLabelPosition=bottom;verticalAlign=top;html=1;" vertex="1" parent="aZ4LYYL7Ky7_YSfR0cW_-1">
          <mxGeometry x="80" y="270" width="30" height="60" as="geometry" />
        </mxCell>
        <mxCell id="1N5yhNWeasO5Eyk3waic-2" value="Organiser voyage" style="ellipse;whiteSpace=wrap;html=1;" vertex="1" parent="aZ4LYYL7Ky7_YSfR0cW_-1">
          <mxGeometry x="340" y="265" width="140" height="70" as="geometry" />
        </mxCell>
        <mxCell id="1N5yhNWeasO5Eyk3waic-3" value="Réserver chambre hotel" style="ellipse;whiteSpace=wrap;html=1;" vertex="1" parent="aZ4LYYL7Ky7_YSfR0cW_-1">
          <mxGeometry x="170" y="120" width="140" height="70" as="geometry" />
        </mxCell>
        <mxCell id="1N5yhNWeasO5Eyk3waic-4" value="Réserver taxi" style="ellipse;whiteSpace=wrap;html=1;" vertex="1" parent="aZ4LYYL7Ky7_YSfR0cW_-1">
          <mxGeometry x="340" y="120" width="140" height="70" as="geometry" />
        </mxCell>
        <mxCell id="1N5yhNWeasO5Eyk3waic-5" value="Réserver billet" style="ellipse;whiteSpace=wrap;html=1;" vertex="1" parent="aZ4LYYL7Ky7_YSfR0cW_-1">
          <mxGeometry x="520" y="120" width="140" height="70" as="geometry" />
        </mxCell>
        <mxCell id="1N5yhNWeasO5Eyk3waic-6" value="Réserver billet train" style="ellipse;whiteSpace=wrap;html=1;" vertex="1" parent="aZ4LYYL7Ky7_YSfR0cW_-1">
          <mxGeometry x="400" y="390" width="140" height="70" as="geometry" />
        </mxCell>
        <mxCell id="1N5yhNWeasO5Eyk3waic-7" value="Réserver billet avion" style="ellipse;whiteSpace=wrap;html=1;" vertex="1" parent="aZ4LYYL7Ky7_YSfR0cW_-1">
          <mxGeometry x="590" y="390" width="140" height="70" as="geometry" />
        </mxCell>
        <mxCell id="1N5yhNWeasO5Eyk3waic-8" value="Générer une facture" style="ellipse;whiteSpace=wrap;html=1;" vertex="1" parent="aZ4LYYL7Ky7_YSfR0cW_-1">
          <mxGeometry x="210" y="390" width="140" height="70" as="geometry" />
        </mxCell>
        <mxCell id="1N5yhNWeasO5Eyk3waic-15" value="" style="html=1;fillColor=none;" vertex="1" parent="aZ4LYYL7Ky7_YSfR0cW_-1">
          <mxGeometry x="150" y="75" width="620" height="450" as="geometry" />
        </mxCell>
        <mxCell id="1N5yhNWeasO5Eyk3waic-16" value="Agence de voyages" style="text;html=1;align=center;verticalAlign=middle;resizable=0;points=[];autosize=1;" vertex="1" parent="aZ4LYYL7Ky7_YSfR0cW_-1">
          <mxGeometry x="650" y="90" width="120" height="20" as="geometry" />
        </mxCell>
        <mxCell id="1N5yhNWeasO5Eyk3waic-18" value="&amp;lt;&amp;lt;includes&amp;gt;&amp;gt;" style="endArrow=open;endSize=12;dashed=1;html=1;" edge="1" parent="aZ4LYYL7Ky7_YSfR0cW_-1" source="1N5yhNWeasO5Eyk3waic-2" target="1N5yhNWeasO5Eyk3waic-3">
          <mxGeometry x="0.0119" width="160" relative="1" as="geometry">
            <mxPoint x="260" y="220" as="sourcePoint" />
            <mxPoint x="420" y="220" as="targetPoint" />
            <Array as="points">
              <mxPoint x="320" y="230" />
            </Array>
            <mxPoint as="offset" />
          </mxGeometry>
        </mxCell>
        <mxCell id="1N5yhNWeasO5Eyk3waic-19" value="&amp;lt;&amp;lt;includes&amp;gt;&amp;gt;" style="endArrow=open;endSize=12;dashed=1;html=1;" edge="1" parent="aZ4LYYL7Ky7_YSfR0cW_-1" source="1N5yhNWeasO5Eyk3waic-2" target="1N5yhNWeasO5Eyk3waic-4">
          <mxGeometry x="0.0119" width="160" relative="1" as="geometry">
            <mxPoint x="372.14696860805554" y="270.5587533618209" as="sourcePoint" />
            <mxPoint x="272.9411764705883" y="185.88235294117658" as="targetPoint" />
            <Array as="points" />
            <mxPoint as="offset" />
          </mxGeometry>
        </mxCell>
        <mxCell id="1N5yhNWeasO5Eyk3waic-20" value="&amp;lt;&amp;lt;includes&amp;gt;&amp;gt;" style="endArrow=open;endSize=12;dashed=1;html=1;exitX=1;exitY=0;exitDx=0;exitDy=0;" edge="1" parent="aZ4LYYL7Ky7_YSfR0cW_-1" source="1N5yhNWeasO5Eyk3waic-2" target="1N5yhNWeasO5Eyk3waic-5">
          <mxGeometry x="0.0119" width="160" relative="1" as="geometry">
            <mxPoint x="410" y="265" as="sourcePoint" />
            <mxPoint x="410" y="190" as="targetPoint" />
            <Array as="points" />
            <mxPoint as="offset" />
          </mxGeometry>
        </mxCell>
        <mxCell id="1N5yhNWeasO5Eyk3waic-22" value="&amp;lt;&amp;lt;extends&amp;gt;&amp;gt;" style="endArrow=open;endSize=12;dashed=1;html=1;exitX=0.5;exitY=0;exitDx=0;exitDy=0;" edge="1" parent="aZ4LYYL7Ky7_YSfR0cW_-1" source="1N5yhNWeasO5Eyk3waic-8" target="1N5yhNWeasO5Eyk3waic-2">
          <mxGeometry x="0.1443" width="160" relative="1" as="geometry">
            <mxPoint x="339.99696860805557" y="389.9987533618209" as="sourcePoint" />
            <mxPoint x="240.79117647058828" y="305.3223529411766" as="targetPoint" />
            <Array as="points">
              <mxPoint x="287.85" y="349.44" />
            </Array>
            <mxPoint y="-1" as="offset" />
          </mxGeometry>
        </mxCell>
        <mxCell id="1N5yhNWeasO5Eyk3waic-26" value="&lt;font style=&quot;font-size: 11px&quot;&gt;Disponible sous &lt;br&gt;demande du client&lt;/font&gt;" style="html=1;fillColor=none;" vertex="1" parent="aZ4LYYL7Ky7_YSfR0cW_-1">
          <mxGeometry x="160" y="320" width="110" height="40" as="geometry" />
        </mxCell>
        <mxCell id="1N5yhNWeasO5Eyk3waic-27" value="" style="endArrow=none;endSize=12;dashed=1;html=1;endFill=0;rounded=0;targetPerimeterSpacing=7;exitX=1;exitY=0.75;exitDx=0;exitDy=0;" edge="1" parent="aZ4LYYL7Ky7_YSfR0cW_-1" source="1N5yhNWeasO5Eyk3waic-26">
          <mxGeometry x="-0.25" y="50" width="160" relative="1" as="geometry">
            <mxPoint x="80" y="380" as="sourcePoint" />
            <mxPoint x="290" y="360" as="targetPoint" />
            <mxPoint as="offset" />
          </mxGeometry>
        </mxCell>
        <mxCell id="0SFgcUFYEeMfVqd_rsCA-0" value="" style="endArrow=block;endSize=16;endFill=0;html=1;" edge="1" parent="aZ4LYYL7Ky7_YSfR0cW_-1" source="1N5yhNWeasO5Eyk3waic-6" target="1N5yhNWeasO5Eyk3waic-5">
          <mxGeometry x="-1" y="-565" width="160" relative="1" as="geometry">
            <mxPoint x="155" y="520" as="sourcePoint" />
            <mxPoint x="155" y="480" as="targetPoint" />
            <mxPoint y="10" as="offset" />
            <Array as="points">
              <mxPoint x="590" y="310" />
            </Array>
          </mxGeometry>
        </mxCell>
        <mxCell id="0SFgcUFYEeMfVqd_rsCA-1" value="" style="endArrow=block;endSize=16;endFill=0;html=1;exitX=0.5;exitY=0;exitDx=0;exitDy=0;" edge="1" parent="aZ4LYYL7Ky7_YSfR0cW_-1" source="1N5yhNWeasO5Eyk3waic-7">
          <mxGeometry x="-1" y="-565" width="160" relative="1" as="geometry">
            <mxPoint x="502.379620468648" y="393.9695303842125" as="sourcePoint" />
            <mxPoint x="590" y="190" as="targetPoint" />
            <mxPoint y="10" as="offset" />
            <Array as="points">
              <mxPoint x="590" y="310" />
            </Array>
          </mxGeometry>
        </mxCell>
      </root>
    </mxGraphModel>
  </diagram>
</mxfile>
